Coordinates
version=1
nRows=10
nColumns=40
inDegrees=yes

Units are S.I. units (second, meters, Newtons, ...)
Angles are in degrees.

endheader
time	pelvis_tilt	pelvis_list	pelvis_rotation	pelvis_tx	pelvis_ty	pelvis_tz	hip_flexion_r	hip_adduction_r	hip_rotation_r	knee_angle_r	knee_angle_r_beta	ankle_angle_r	subtalar_angle_r	mtp_angle_r	hip_flexion_l	hip_adduction_l	hip_rotation_l	knee_angle_l	knee_angle_l_beta	ankle_angle_l	subtalar_angle_l	mtp_angle_l	lumbar_extension	lumbar_bending	lumbar_rotation	arm_flex_r	arm_add_r	arm_rot_r	elbow_flex_r	pro_sup_r	wrist_flex_r	wrist_dev_r	arm_flex_l	arm_add_l	arm_rot_l	elbow_flex_l	pro_sup_l	wrist_flex_l	wrist_dev_l
     53.10000000	     -2.81176117	     -5.79664975	      5.37956345	      1.03291619	      0.92667561	      0.48797590	     -0.36092196	      4.64266828	    -19.16764026	      7.65842165	      7.65842165	     12.80111114	      4.93812354	     -9.64853812	     29.54091807	    -10.81437472	     -4.36117160	     23.49638486	     23.49638486	      5.48083544	     -9.73011725	      7.17956843	     -9.51460506	      7.19708639	      3.28479828	     28.33041091	    -17.87112679	     -6.08801510	     65.46557905	     45.03745758	      0.00000000	      0.00000000	     -7.25962592	     -7.32260721	    -13.79885702	     24.23047234	     47.26251655	      0.00000000	      0.00000000
     53.11285714	     -2.88311129	     -6.01630134	      5.33618666	      1.03408375	      0.92547411	      0.48592034	     -0.68787441	      4.77701287	    -18.95594005	      7.72699980	      7.72699980	     13.21069064	      4.72020507	     -9.41966148	     29.21969783	    -10.71096113	     -3.59554564	     24.33875626	     24.33875626	      5.38072627	    -10.83134004	      7.23009554	     -9.30241171	      7.39090833	      2.77209891	     28.22354868	    -17.30241402	     -6.10540076	     67.64472391	     44.96985609	      0.00000000	      0.00000000	     -7.74029422	     -7.27099642	    -14.03462577	     24.10089204	     47.28866406	      0.00000000	      0.00000000
     53.12571429	     -2.89700137	     -5.99483677	      5.17607628	      1.03549835	      0.92451196	      0.48384649	     -1.07419402	      4.61479760	    -18.70889432	      7.88159268	      7.88159268	     13.61626167	      4.66109757	     -9.46742428	     28.64222960	    -10.51611911	     -3.41213850	     24.92543952	     24.92543952	      5.56367886	    -11.11405882	      7.08217202	     -9.08633117	      7.21410014	      2.84238757	     28.09854841	    -17.19444796	     -6.08243595	     67.98002616	     44.95838229	      0.00000000	      0.00000000	     -7.89031550	     -7.33481146	    -14.09411588	     24.06794234	     47.29549372	      0.00000000	      0.00000000
     53.13857143	     -2.99737140	     -6.02350403	      5.08629455	      1.03659734	      0.92335590	      0.48153253	     -1.03332121	      4.41506877	    -18.24427016	      8.65828028	      8.65828028	     14.32391126	      3.86570630	     -8.93074373	     28.29680771	    -10.25355399	     -2.88292738	     25.50077477	     25.50077477	      5.61123777	    -11.88550979	      6.87400585	     -8.91615988	      7.20385734	      2.64770975	     27.64129053	    -17.00666325	     -6.07028947	     70.39966207	     44.88340449	      0.00000000	      0.00000000	     -8.03710888	     -7.34392975	    -14.39659619	     24.20530288	     47.33748608	      0.00000000	      0.00000000
     53.15142857	     -3.03680890	     -5.93952241	      4.99992462	      1.03793795	      0.92254369	      0.47913323	     -1.37705214	      4.16621591	    -18.03788783	      8.82309794	      8.82309794	     14.65521756	      3.75071348	     -8.90392690	     27.84445637	     -9.96839435	     -2.66995999	     25.93799076	     25.93799076	      5.98233976	    -12.05994519	      6.62042614	     -8.69757534	      6.96807977	      2.63528925	     27.41728520	    -16.92581524	     -6.03968327	     70.60480698	     44.87578627	      0.00000000	      0.00000000	     -7.97124849	     -7.45604440	    -14.44118224	     24.24339495	     47.34583782	      0.00000000	      0.00000000
     53.16428571	     -3.10402330	     -5.80245735	      4.90129224	      1.03889201	      0.92165936	      0.47662964	     -1.16748582	      3.72696764	    -17.47097798	      9.99816743	      9.99816743	     15.42666478	      2.67844860	     -8.15683060	     27.54698967	     -9.60871793	     -2.39560201	     26.40350525	     26.40350525	      6.17250762	    -12.62592676	      6.14939546	     -8.61251797	      6.74674013	      2.52529611	     26.94647441	    -16.85035431	     -6.04716767	     72.39815785	     44.82283242	      0.00000000	      0.00000000	     -7.82134918	     -7.56207671	    -14.65919494	     24.37772113	     47.37905710	      0.00000000	      0.00000000
     53.17714286	     -3.19658080	     -5.62921923	      4.85666162	      1.03987512	      0.92100000	      0.47399695	     -1.08928621	      3.29934377	    -16.95719465	     10.86026634	     10.86026634	     16.14670121	      1.82891256	     -6.99581301	     27.29572234	     -9.21643933	     -2.16962110	     26.78275037	     26.78275037	      6.44406537	    -13.04552179	      5.51139115	     -8.49575752	      6.43114829	      2.63245721	     26.16585948	    -17.00024105	     -6.15705842	     73.85369999	     44.78804854	      0.00000000	      0.00000000	     -7.38953433	     -7.69860109	    -14.88433032	     24.55008903	     47.41449492	      0.00000000	      0.00000000
     53.19000000	     -3.24836448	     -5.44241413	      4.83380577	      1.04076273	      0.92056270	      0.47123995	     -1.01768863	      2.83077500	    -16.63068930	     11.77170984	     11.77170984	     16.74581127	      1.18251697	     -6.00531588	     27.05398349	     -8.85056571	     -2.07356008	     27.15308713	     27.15308713	      6.81270206	    -13.33418794	      4.91781393	     -8.40888456	      6.12178433	      2.59012690	     25.58890102	    -16.99802663	     -6.30526669	     74.80216350	     44.77282637	      0.00000000	      0.00000000	     -6.88008941	     -7.86116512	    -15.01995722	     24.61153316	     47.43485100	      0.00000000	      0.00000000
     53.20285714	     -3.28221498	     -5.23802231	      4.85347761	      1.04160271	      0.92031206	      0.46834089	     -0.90804251	      2.32538494	    -16.27951812	     12.78523355	     12.78523355	     17.27379283	      0.52180319	     -4.98649827	     26.82971108	     -8.46399780	     -1.97928286	     27.51917316	     27.51917316	      7.21421833	    -13.56376173	      4.38692760	     -8.31491971	      5.83441944	      2.58366994	     24.98373324	    -16.99820689	     -6.43866399	     75.53829197	     44.76623171	      0.00000000	      0.00000000	     -6.30205176	     -8.04847288	    -15.11433887	     24.68601884	     47.44608461	      0.00000000	      0.00000000
     53.21571429	     -3.16703460	     -5.08651323	      4.89552215	      1.04240059	      0.92047846	      0.46529833	     -1.12527943	      1.90408856	    -16.24049906	     13.41175584	     13.41175584	     17.29532616	      0.17028693	     -4.85993802	     26.46851675	     -8.15572880	     -1.95132544	     27.88415949	     27.88415949	      7.76485789	    -13.71421976	      4.06682085	     -8.46110912	      5.60156606	      2.25354672	     24.63549865	    -16.85163805	     -6.38733477	     75.57432417	     44.76415024	      0.00000000	      0.00000000	     -5.65356725	     -8.21658316	    -15.10407259	     24.90270784	     47.45401835	      0.00000000	      0.00000000
